<svg width="136" height="100" viewBox="0 0 136 100" fill="none" xmlns="http://www.w3.org/2000/svg">
<path opacity="0.05" d="M90.0856 60.9132C89.1489 62.0269 88.1373 62.0082 87.5344 61.8512L87.5568 61.2745C87.5568 61.2745 90.0483 60.1359 89.9847 60.3751C89.9611 60.4648 90.0084 60.6803 90.0856 60.9132Z" fill="#FF5630"/>
<path opacity="0.05" d="M96.9137 62.1737C95.3229 63.0931 94.3899 62.0155 94.1731 61.7103C94.3064 61.3603 94.5069 60.7922 94.4658 60.6303C94.406 60.3898 96.8937 61.5284 96.8937 61.5284L96.9137 62.1737Z" fill="#FF5630"/>
<path opacity="0.05" d="M95.2095 53.0015C95.2095 53.0015 96.723 52.1295 97.0531 52.5219C97.3833 52.9143 95.2095 53.0015 95.2095 53.0015Z" fill="#FF5630"/>
<path opacity="0.05" d="M96.1235 53.4812C96.1235 53.4812 95.8744 53.6058 96.4237 53.7652C96.9731 53.9247 96.1235 53.4812 96.1235 53.4812Z" fill="#FF5630"/>
<path opacity="0.05" d="M86.9717 51.0831C86.9206 51.0981 88.2311 51.9676 89.4145 51.2476C89.4095 51.2476 87.2669 50.9934 86.9717 51.0831Z" fill="#FF5630"/>
<path opacity="0.05" d="M89.3497 52.7461C89.3497 52.7461 88.9909 53.4512 88.256 53.5558C87.521 53.6604 89.3497 52.7461 89.3497 52.7461Z" fill="#FF5630"/>
<path opacity="0.05" d="M94.1604 54.2759C94.1604 54.2759 95.8845 57.0165 95.5544 57.663C95.2242 58.3095 94.1604 54.2759 94.1604 54.2759Z" fill="#FF5630"/>
<path opacity="0.05" d="M90.7587 65.1734C90.7587 65.3266 90.7587 65.4698 90.7437 65.5882C90.6989 66.1425 89.3348 65.9332 89.3348 65.9332C88.0891 66.1064 87.6406 65.5085 87.4924 64.9367C87.4458 64.7509 87.4228 64.5601 87.4239 64.3686C87.4231 64.2545 87.4306 64.1404 87.4463 64.0273V63.9139C87.7148 63.833 88.0059 63.8924 88.2211 64.0721C88.7755 64.5218 89.5105 64.1768 89.5105 64.1768C89.5105 64.1768 90.0499 64.2216 90.2579 64.401C90.375 64.5019 90.5681 64.259 90.7151 64.0273C90.7238 64.1768 90.7375 64.4471 90.7462 64.7361C90.7562 64.8843 90.7587 65.0338 90.7587 65.1734Z" fill="#FF5630"/>
<path opacity="0.05" d="M88.5712 65.1411C88.5712 65.1411 88.1975 65.5074 87.4924 64.9418C87.4458 64.7561 87.4228 64.5653 87.4239 64.3738C87.7839 64.6478 88.4516 65.1411 88.5712 65.1411Z" fill="#FF5630"/>
<path opacity="0.05" d="M90.7584 65.1734C90.6969 65.2208 90.6186 65.2407 90.542 65.2284C90.4653 65.2162 90.3971 65.1728 90.3535 65.1086C90.4988 64.998 90.6324 64.8728 90.7521 64.7349C90.7559 64.8843 90.7584 65.0338 90.7584 65.1734Z" fill="#FF5630"/>
<path opacity="0.05" d="M93.6822 65.4301C93.6822 65.5846 93.6822 65.7278 93.6959 65.8449C93.7407 66.4005 95.1048 66.19 95.1048 66.19C96.3505 66.3644 96.799 65.7664 96.9472 65.1934C97.0206 64.896 97.0363 64.5873 96.9933 64.284V64.1707C96.7244 64.0911 96.4335 64.1504 96.2172 64.3289C95.6629 64.7786 94.9291 64.4335 94.9291 64.4335C94.9291 64.4335 94.3897 64.4796 94.1817 64.659C94.0646 64.7599 93.8715 64.517 93.7258 64.2853C93.7171 64.4348 93.7021 64.7051 93.6934 64.9941C93.6834 65.1398 93.6809 65.2893 93.6822 65.4301Z" fill="#FF5630"/>
<path opacity="0.05" d="M95.8699 65.3953C95.8699 65.3953 96.2436 65.7615 96.9474 65.1959C96.9944 65.0107 97.0179 64.8203 97.0172 64.6292C96.6559 64.902 95.9882 65.3953 95.8699 65.3953Z" fill="#FF5630"/>
<path opacity="0.05" d="M93.6822 65.43C93.7435 65.4773 93.8216 65.4972 93.898 65.4849C93.9745 65.4727 94.0425 65.4293 94.0858 65.3652C93.9403 65.2548 93.8068 65.1295 93.6872 64.9915C93.6835 65.1397 93.681 65.2892 93.6822 65.43Z" fill="#FF5630"/>
<path fill-rule="evenodd" clip-rule="evenodd" d="M33.6634 91.4419C33.3615 91.0785 33.2231 90.6065 33.281 90.1376L38.7796 45.146L39.2355 41.4089C39.3412 40.5489 40.0683 39.9007 40.9347 39.8941L57.0405 39.7869C57.5038 39.7841 57.9465 39.5948 58.2685 39.2617C58.5906 38.9286 58.7649 38.4799 58.7522 38.0168L58.7459 37.8461C58.7301 37.379 58.9045 36.9255 59.2293 36.5894C59.5541 36.2534 60.0014 36.0635 60.4688 36.0635H77.3931C78.3431 36.0635 79.1138 36.8325 79.1159 37.7826C79.1158 37.86 79.1108 37.9374 79.101 38.0143C79.0361 38.4992 79.1804 38.9888 79.4979 39.3609C79.8154 39.7331 80.2762 39.9528 80.7652 39.9651L97.0194 40.3799C97.5195 40.3922 97.9895 40.6214 98.3071 41.0079C98.6247 41.3944 98.7585 41.9 98.6737 42.393L90.5479 89.8548L90.3946 90.7517C90.3568 90.9809 90.2719 91.1997 90.1455 91.3945L33.6634 91.4419Z" fill="#004B50"/>
<rect x="82.7144" y="26.5315" width="9.51728" height="32.3027" transform="rotate(34.64 82.7144 26.5315)" fill="white"/>
<rect x="83.2788" y="27.7908" width="6.71903" height="6.71903" transform="rotate(34.804 83.2788 27.7908)" fill="#FFAB00"/>
<rect opacity="0.5" x="78.9565" y="34.4395" width="6.72812" height="6.72812" transform="rotate(34.64 78.9565 34.4395)" fill="#FFAB00"/>
<rect opacity="0.3" x="74.3384" y="41.1226" width="6.72813" height="6.72813" transform="rotate(34.64 74.3384 41.1226)" fill="#FFAB00"/>
<rect x="71.6516" y="24.8672" width="9.51729" height="32.1806" transform="rotate(16.29 71.6516 24.8672)" fill="white"/>
<rect x="72.8506" y="25.7588" width="6.72812" height="6.72812" transform="rotate(16.29 72.8506 25.7588)" fill="#FF5630"/>
<rect opacity="0.5" x="70.572" y="33.5552" width="6.72812" height="6.72812" transform="rotate(16.29 70.572 33.5552)" fill="#FF5630"/>
<rect opacity="0.3" x="68.2937" y="41.3506" width="6.72813" height="6.72813" transform="rotate(16.29 68.2937 41.3506)" fill="#FF5630"/>
<rect x="65.1807" y="25.3542" width="9.51729" height="32.1806" transform="rotate(4.6 65.1807 25.3542)" fill="white"/>
<rect x="66.5308" y="25.9851" width="6.72812" height="6.72812" transform="rotate(4.6 66.5308 25.9851)" fill="#00B8D9"/>
<rect opacity="0.5" x="65.8784" y="34.0798" width="6.72812" height="6.72812" transform="rotate(4.6 65.8784 34.0798)" fill="#00B8D9"/>
<rect opacity="0.3" x="65.2273" y="42.1772" width="6.72812" height="6.72812" transform="rotate(4.6 65.2273 42.1772)" fill="#00B8D9"/>
<rect x="60.9126" y="26.6438" width="9.51728" height="32.1806" transform="rotate(-2.61 60.9126 26.6438)" fill="white"/>
<rect x="62.3298" y="27.0984" width="6.72813" height="6.72812" transform="rotate(-2.61 62.3298 27.0984)" fill="#00A76F"/>
<rect opacity="0.5" x="62.9634" y="34.9553" width="6.73653" height="6.73653" transform="rotate(-2.86241 62.9634 34.9553)" fill="#00A76F"/>
<rect opacity="0.3" x="63.0691" y="43.3271" width="6.72812" height="6.72813" transform="rotate(-2.61 63.0691 43.3271)" fill="#00A76F"/>
<path d="M64.9498 69.0525L56.4939 72.3238L44.1351 77.1011C43.668 76.2291 42.9803 75.0506 42.1295 73.6442C39.2021 68.7934 34.3587 61.2481 30.046 54.6171C25.1877 47.1428 21.0059 40.8357 21.0059 40.8357L24.033 39.9637L48.7605 32.7847L64.9498 69.0525Z" fill="#F4F6F8"/>
<path opacity="0.1" d="M64.9495 69.0525L56.4936 72.3237C51.7699 73.3079 46.9495 73.7509 42.1255 73.6442C39.1981 68.7934 34.3547 61.2481 30.042 54.6171L24.0339 39.9588L48.7602 32.7847L64.9495 69.0525Z" fill="black"/>
<path d="M71.2404 67.0172C71.2404 67.0172 58.1043 74.788 38.4917 73.0303L22.8567 34.9113L30.3497 33.6233L56.2531 29.1748L70.9526 66.276L71.2404 67.0172Z" fill="#00A76F"/>
<path opacity="0.1" d="M70.9478 66.2809C67.8547 66.4329 64.2757 66.4179 60.6756 65.9882C56.779 65.5297 52.86 64.5855 49.5003 62.8539C46.6912 61.4077 44.2894 59.8343 42.1954 57.947C36.7479 53.0476 33.3769 46.0392 30.3499 33.6281L56.2533 29.1797L70.9478 66.2809Z" fill="#FF5630"/>
<path d="M80.5846 64.1495C80.5846 64.1495 70.9016 66.0455 61.0455 64.8782C57.1489 64.4198 53.2298 63.4756 49.8701 61.744C47.0611 60.2977 44.6606 58.7244 42.5653 56.8371C35.8234 50.7717 32.2632 41.4762 28.592 22.7045C28.592 22.7045 44.6892 26.5898 60.607 18.0791C60.602 18.0853 65.9673 51.5677 80.5846 64.1495Z" fill="white"/>
<g opacity="0.3">
<path d="M36.9185 29.5957C36.9185 29.5957 50.0085 28.8557 53.6634 26.0342L54.2177 27.8156C54.2177 27.8156 45.5687 31.6312 36.9185 31.6773V29.5957Z" fill="#00A76F"/>
<path d="M36.9185 38.3904C36.9185 38.3904 49.5924 37.6966 59.1682 33.0712L59.4921 33.8112C59.4921 33.8112 51.8932 38.2472 36.9185 39.4082V38.3904Z" fill="#00A76F"/>
<path d="M37.939 41.8175C37.939 41.8175 50.6129 41.1236 60.1875 36.4983L60.5114 37.2382C60.5114 37.2382 52.9125 41.673 37.939 42.8352V41.8175Z" fill="#00A76F"/>
<path d="M38.9578 45.2494C38.9578 45.2494 51.6318 44.5555 61.2076 39.9302L61.5302 40.6701C61.5302 40.6701 53.9314 45.1061 38.9578 46.2671V45.2494Z" fill="#00A76F"/>
<path d="M39.9779 48.6814C39.9779 48.6814 52.6519 47.9875 62.2265 43.3622L62.5504 44.1021C62.5504 44.1021 54.9515 48.5381 39.9779 49.6991V48.6814Z" fill="#00A76F"/>
<path d="M40.9968 52.1145C40.9968 52.1145 53.6708 51.4206 63.2466 46.7953L63.5692 47.5352C63.5692 47.5352 55.9704 51.97 40.9968 53.1323V52.1145Z" fill="#00A76F"/>
</g>
<path d="M130.112 94.7268C130.112 94.7268 124.845 94.4092 125.465 98.1002C125.465 98.1002 125.341 98.7517 125.934 99.0482C125.934 99.0482 125.942 98.7742 126.473 98.8676C126.662 98.8994 126.855 98.9086 127.046 98.895C127.304 98.8777 127.55 98.7762 127.745 98.606C127.745 98.606 129.226 97.9943 129.802 95.5752C129.802 95.5752 130.228 95.047 130.21 94.9112L129.322 95.2849C129.322 95.2849 129.626 95.9264 129.387 96.4584C129.387 96.4584 129.358 95.3086 129.187 95.3372C129.153 95.3372 128.725 95.559 128.725 95.559C128.725 95.559 129.247 96.6801 128.85 97.4873C128.85 97.4873 128.999 96.1108 128.558 95.6399L127.936 96.0049C127.936 96.0049 128.546 97.1585 128.132 98.1002C128.132 98.1002 128.238 96.6564 127.803 96.0934L127.237 96.5356C127.237 96.5356 127.811 97.6729 127.461 98.454C127.461 98.454 127.415 96.7723 127.113 96.6452C127.113 96.6452 126.615 97.0825 126.543 97.2681C126.543 97.2681 126.935 98.0927 126.691 98.5287C126.691 98.5287 126.542 97.4076 126.419 97.4076C126.419 97.4076 125.921 98.155 125.874 98.6533C125.874 98.6533 125.895 97.8959 126.3 97.3316C126.015 97.3861 125.751 97.5224 125.543 97.724C125.543 97.724 125.62 97.1983 126.422 97.1535C126.422 97.1535 126.831 96.5904 126.939 96.5555C126.939 96.5555 126.142 96.4895 125.658 96.7038C125.658 96.7038 126.084 96.2055 127.086 96.4334L127.645 95.9775C127.645 95.9775 126.595 95.833 126.15 95.9925C126.15 95.9925 126.662 95.554 127.796 95.8679L128.405 95.5041C128.405 95.5041 127.511 95.3111 126.978 95.3796C126.978 95.3796 127.539 95.0756 128.585 95.4045L129.019 95.2089C129.019 95.2089 128.364 95.0843 128.172 95.0594C127.98 95.0345 127.969 94.9872 127.969 94.9872C128.385 94.9171 128.811 94.9646 129.201 95.1242C129.201 95.1242 130.127 94.7854 130.112 94.7268Z" fill="#00A76F"/>
<path d="M132.565 82.5425C132.565 82.5425 129.596 82.3631 129.949 84.4447C129.912 84.6609 130.018 84.8766 130.212 84.9791C130.212 84.9791 130.218 84.8246 130.517 84.8769C130.623 84.8945 130.732 84.8995 130.839 84.8919C130.985 84.8825 131.123 84.8256 131.233 84.7299C131.233 84.7299 132.068 84.3849 132.393 83.0208C132.393 83.0208 132.633 82.7231 132.623 82.6471L132.125 82.8601C132.125 82.8601 132.296 83.2226 132.161 83.5228C132.161 83.5228 132.145 82.8738 132.049 82.8888C132.029 82.8888 131.789 83.0133 131.789 83.0133C131.789 83.0133 132.083 83.6362 131.861 84.1008C131.861 84.1008 131.946 83.3248 131.697 83.0582L131.344 83.265C131.344 83.265 131.688 83.9152 131.455 84.4459C131.455 84.4459 131.515 83.6312 131.269 83.3148L130.95 83.5639C130.95 83.5639 131.273 84.2055 131.075 84.6452C131.075 84.6452 131.049 83.6972 130.879 83.6262C130.758 83.7288 130.65 83.8455 130.557 83.9738C130.557 83.9738 130.778 84.4397 130.641 84.6851C130.641 84.6851 130.557 84.0535 130.488 84.051C130.488 84.051 130.209 84.4683 130.18 84.7548C130.194 84.489 130.277 84.2313 130.421 84.0074C130.26 84.0378 130.111 84.1149 129.994 84.2292C129.994 84.2292 130.037 83.9327 130.492 83.9078C130.492 83.9078 130.722 83.5901 130.783 83.5702C130.783 83.5702 130.334 83.5328 130.061 83.6536C130.061 83.6536 130.301 83.3746 130.866 83.5017L131.182 83.2438C131.182 83.2438 130.589 83.1628 130.339 83.2525C130.339 83.2525 130.628 83.0034 131.267 83.1852L131.611 82.9797C131.346 82.9218 131.075 82.8988 130.805 82.9112C130.805 82.9112 131.122 82.7393 131.71 82.9249L131.959 82.8153C131.959 82.8153 131.586 82.7418 131.481 82.7306C131.376 82.7193 131.366 82.6894 131.366 82.6894C131.601 82.6505 131.841 82.6772 132.062 82.7667C132.062 82.7667 132.575 82.5748 132.565 82.5425Z" fill="#00A76F"/>
<path d="M115.04 84.3487C115.04 84.3487 111.455 84.1319 111.878 86.6445C111.833 86.9057 111.961 87.1663 112.196 87.2898C112.196 87.2898 112.196 87.103 112.57 87.1653C112.698 87.187 112.829 87.1933 112.96 87.1839C113.135 87.1722 113.303 87.1031 113.435 86.9871C113.435 86.9871 114.443 86.571 114.836 84.9242C114.836 84.9242 115.126 84.5654 115.113 84.472L114.502 84.7311C114.502 84.7311 114.709 85.1671 114.545 85.5296C114.545 85.5296 114.525 84.7473 114.41 84.7648C114.386 84.7648 114.096 84.9167 114.096 84.9167C114.096 84.9167 114.451 85.6766 114.183 86.2297C114.183 86.2297 114.285 85.2929 113.985 84.9715L113.559 85.2207C113.559 85.2207 113.974 86.0067 113.692 86.647C113.692 86.647 113.764 85.6642 113.469 85.2767L113.083 85.5782C113.083 85.5782 113.474 86.3518 113.235 86.8837C113.235 86.8837 113.205 85.7389 112.999 85.653C112.999 85.653 112.662 85.9507 112.611 86.0728C112.611 86.0728 112.877 86.6346 112.712 86.9311C112.712 86.9311 112.61 86.1687 112.526 86.1649C112.526 86.1649 112.191 86.6707 112.152 87.0158C112.169 86.6958 112.269 86.3858 112.443 86.1164C112.249 86.1534 112.07 86.2465 111.928 86.3842C111.928 86.3842 111.98 86.0267 112.526 85.9955C112.526 85.9955 112.804 85.6118 112.879 85.5894C112.879 85.5894 112.335 85.5433 112.007 85.6891C112.007 85.6891 112.296 85.3527 112.977 85.506L113.358 85.1945C113.358 85.1945 112.644 85.0974 112.34 85.2045C112.34 85.2045 112.689 84.9068 113.462 85.1248L113.876 84.8756C113.876 84.8756 113.267 84.7448 112.904 84.7922C112.904 84.7922 113.287 84.5854 113.997 84.8096L114.294 84.6763C114.294 84.6763 113.848 84.5891 113.717 84.5754C113.586 84.5617 113.58 84.5256 113.58 84.5256C113.863 84.4777 114.153 84.5096 114.418 84.6178C114.418 84.6178 115.051 84.3873 115.04 84.3487Z" fill="#00A76F"/>
<rect x="83.8882" y="27.0891" width="21.2607" height="38.0467" rx="4.73723" transform="rotate(-71.99 83.8882 27.0891)" fill="white"/>
<g opacity="0.24">
<path d="M98.412 18.1278C98.412 20.2853 96.663 22.0343 94.5054 22.0343C92.3479 22.0343 90.5989 20.2853 90.5989 18.1278C90.5989 15.9702 92.3479 14.2212 94.5054 14.2212C96.663 14.2212 98.412 15.9702 98.412 18.1278Z" fill="#00A76F"/>
<path d="M103.852 17.4245L104.183 16.4068L120.37 21.6692L120.039 22.6869L103.852 17.4245Z" fill="#00A76F"/>
<path d="M103.009 20.019L103.34 19.0014L111.585 21.682L111.254 22.6997L103.009 20.019Z" fill="#00A76F"/>
<path d="M102.164 22.6152L102.494 21.5976L115.83 25.9332L115.5 26.9509L102.164 22.6152Z" fill="#00A76F"/>
<path d="M101.32 25.2104L101.651 24.1927L117.838 29.4551L117.507 30.4727L101.32 25.2104Z" fill="#00A76F"/>
</g>
<rect opacity="0.5" x="111.5" y="33.7139" width="2.06914" height="4.71006" transform="rotate(-71.99 111.5 33.7139)" fill="#00A76F"/>
<path d="M83.9336 66.1721C82.0753 64.9775 81.5373 62.5026 82.7319 60.6443L89.7393 49.744C90.9339 47.8857 93.4087 47.3477 95.267 48.5423L115.983 61.8595C117.841 63.0541 118.379 65.5289 117.184 67.3872L110.177 78.2876C108.982 80.1459 106.507 80.6839 104.649 79.4893L83.9336 66.1721Z" fill="white"/>
<path d="M97.6252 69.6544L104.609 58.6626L105.689 59.3487L98.7051 70.3405L97.6252 69.6544Z" fill="#F4F6F8"/>
<path d="M99.932 71.1188L106.916 60.127L107.995 60.8131L101.012 71.8049L99.932 71.1188Z" fill="#F4F6F8"/>
<path d="M84.6357 62.7794L87.8156 57.7745L88.9932 58.5227L85.8134 63.5276L84.6357 62.7794Z" fill="#C4CDD5"/>
<path d="M88.3996 63.7933L95.3833 52.8015L96.4631 53.4876L89.4794 64.4794L88.3996 63.7933Z" fill="#C4CDD5"/>
<path d="M90.7063 65.2575L97.69 54.2657L98.7698 54.9518L91.7861 65.9436L90.7063 65.2575Z" fill="#C4CDD5"/>
<path d="M93.0126 66.7242L99.9963 55.7324L101.076 56.4185L94.0924 67.4103L93.0126 66.7242Z" fill="#C4CDD5"/>
<path d="M95.3991 68.8492L102.431 57.9101L103.506 58.6009L96.4737 69.54L95.3991 68.8492Z" fill="#C4CDD5"/>
<path d="M109.616 64.8749L111.425 62.0286L114.271 63.837L112.462 66.6832L109.616 64.8749Z" fill="#C4CDD5"/>
<path d="M80.1983 45.3167L61.1289 45.5223C60.4151 45.5298 59.8402 46.1102 59.8396 46.824V48.3999C59.8391 49.1066 59.2754 49.6841 58.5689 49.7016L44.8087 50.0318C44.2086 50.0468 43.676 49.6496 43.5194 49.0701L42.8729 46.6945C42.7178 46.1214 42.1947 45.7258 41.601 45.7328L23.2204 45.9309C22.8393 45.9346 22.479 46.1052 22.2345 46.3976C21.99 46.69 21.886 47.0749 21.9498 47.4506L29.3444 90.971C29.4504 91.5956 29.9902 92.0535 30.6237 92.0561L88.6916 92.3052C89.0807 92.3065 89.4501 92.1338 89.6986 91.8344C89.9472 91.535 90.0489 91.1402 89.976 90.758L81.4901 46.3743C81.372 45.7557 80.8281 45.3104 80.1983 45.3167Z" fill="url(#paint0_linear_4539_23393)"/>
<g opacity="0.2">
<path d="M130.211 99.3696C130.211 99.7177 128.543 99.9999 126.484 99.9999C124.426 99.9999 122.757 99.7177 122.757 99.3696C122.757 99.0214 124.426 98.7392 126.484 98.7392C128.543 98.7392 130.211 99.0214 130.211 99.3696Z" fill="#00A76F"/>
<path d="M132.623 85.1596C132.623 85.3557 131.683 85.5146 130.522 85.5146C129.361 85.5146 128.42 85.3557 128.42 85.1596C128.42 84.9635 129.361 84.8046 130.522 84.8046C131.683 84.8046 132.623 84.9635 132.623 85.1596Z" fill="#00A76F"/>
<path d="M115.109 87.5091C115.109 87.7458 113.973 87.9376 112.571 87.9376C111.17 87.9376 110.034 87.7458 110.034 87.5091C110.034 87.2724 111.17 87.0806 112.571 87.0806C113.973 87.0806 115.109 87.2724 115.109 87.5091Z" fill="#00A76F"/>
<path d="M19.8499 82.7766C19.8499 82.93 18.9458 83.0544 17.8306 83.0544C16.7154 83.0544 15.8113 82.93 15.8113 82.7766C15.8113 82.6232 16.7154 82.4988 17.8306 82.4988C18.9458 82.4988 19.8499 82.6232 19.8499 82.7766Z" fill="#00A76F"/>
<path d="M12.1151 83.5602C12.1151 83.7136 11.211 83.838 10.0958 83.838C8.98057 83.838 8.0765 83.7136 8.0765 83.5602C8.0765 83.4067 8.98057 83.2824 10.0958 83.2824C11.211 83.2824 12.1151 83.4067 12.1151 83.5602Z" fill="#00A76F"/>
<path d="M14.6266 85.7937C14.6266 85.9025 13.9841 85.9906 13.1916 85.9906C12.399 85.9906 11.7565 85.9025 11.7565 85.7937C11.7565 85.685 12.399 85.5969 13.1916 85.5969C13.9841 85.5969 14.6266 85.685 14.6266 85.7937Z" fill="#00A76F"/>
<path d="M6.59889 85.5969C6.59889 85.7056 5.95639 85.7937 5.16383 85.7937C4.37126 85.7937 3.72876 85.7056 3.72876 85.5969C3.72876 85.4882 4.37126 85.4001 5.16383 85.4001C5.95639 85.4001 6.59889 85.4882 6.59889 85.5969Z" fill="#00A76F"/>
</g>
<path d="M4.37302 85.1486C4.28277 85.0748 4.21715 84.9753 4.18492 84.8633C4.15314 84.7474 4.20869 84.6253 4.31696 84.573C4.44153 84.5269 4.56611 84.6104 4.66576 84.6976C4.76542 84.7848 4.87878 84.877 5.00335 84.8558C4.86887 84.734 4.80831 84.5504 4.8439 84.3725C4.84901 84.3363 4.86411 84.3022 4.8875 84.2741C4.95477 84.2018 5.07685 84.233 5.15782 84.2903C5.40697 84.4696 5.48545 84.8172 5.48669 85.1311C5.49917 85.016 5.49917 84.8999 5.48669 84.7848C5.48 84.667 5.53229 84.5535 5.62621 84.4821C5.68685 84.449 5.75522 84.4327 5.82428 84.4348C5.94004 84.4182 6.05738 84.4517 6.14692 84.5269C6.23417 84.6457 6.22903 84.8088 6.13446 84.9218C6.03902 85.0289 5.92614 85.119 5.80061 85.1884C5.70533 85.2458 5.62404 85.3236 5.56268 85.4164C5.55515 85.4289 5.54929 85.4423 5.54524 85.4562H4.82023C4.65794 85.3744 4.5075 85.2709 4.37302 85.1486Z" fill="#00A76F"/>
<path d="M17.0107 82.4304C16.9202 82.3574 16.8545 82.2582 16.8226 82.1464C16.7906 82.0308 16.8456 81.9088 16.9534 81.8561C17.078 81.81 17.2025 81.8935 17.3022 81.9807C17.4019 82.0679 17.514 82.1626 17.6423 82.1439C17.5078 82.0226 17.4468 81.8396 17.4816 81.6618C17.4871 81.6255 17.5026 81.5914 17.5264 81.5634C17.5937 81.4911 17.7158 81.5223 17.7967 81.5783C18.0521 81.759 18.1244 82.1065 18.1256 82.4204C18.1381 82.3049 18.1381 82.1884 18.1256 82.0729C18.1143 81.9565 18.1609 81.8419 18.2502 81.7664C18.3111 81.7341 18.3794 81.7183 18.4483 81.7203C18.5638 81.7041 18.6809 81.7371 18.7709 81.8113C18.8584 81.9306 18.8528 82.0944 18.7572 82.2074C18.6625 82.3147 18.5499 82.4049 18.4246 82.474C18.3293 82.5308 18.248 82.6083 18.1867 82.7007C18.1794 82.7137 18.1735 82.7275 18.1692 82.7418H17.4604C17.2969 82.6592 17.1456 82.5544 17.0107 82.4304Z" fill="#00A76F"/>
<path d="M12.7992 85.1485C12.709 85.0745 12.643 84.9751 12.6098 84.8633C12.578 84.7473 12.6336 84.6252 12.7418 84.573C12.8664 84.5269 12.991 84.6104 13.0906 84.6976C13.1903 84.7848 13.3012 84.8795 13.4307 84.862C13.2964 84.74 13.2355 84.5568 13.27 84.3787C13.2756 84.3424 13.2911 84.3083 13.3149 84.2803C13.3821 84.208 13.5042 84.2392 13.5852 84.2965C13.8406 84.4758 13.9116 84.8234 13.9141 85.1373C13.9265 85.0222 13.9265 84.9061 13.9141 84.791C13.9043 84.6735 13.9532 84.5588 14.0449 84.4846C14.1054 84.4513 14.1739 84.4349 14.2429 84.4372C14.3587 84.4208 14.476 84.4543 14.5656 84.5294C14.6529 84.6484 14.6473 84.8117 14.5519 84.9243C14.4569 85.0313 14.3444 85.1215 14.2193 85.1909C14.124 85.2482 14.0427 85.3261 13.9813 85.4189C13.9738 85.4313 13.9679 85.4447 13.9639 85.4587H13.2414C13.0808 85.3755 12.9321 85.2712 12.7992 85.1485Z" fill="#00A76F"/>
<g opacity="0.08">
<path d="M5.88898 11.2513C5.88898 12.7394 4.68261 13.9458 3.19449 13.9458C1.70636 13.9458 0.5 12.7394 0.5 11.2513C0.5 9.76319 1.70636 8.55682 3.19449 8.55682C4.68261 8.55682 5.88898 9.76319 5.88898 11.2513Z" fill="#00A76F"/>
<path d="M135.455 32.7835C135.455 34.2716 134.248 35.478 132.76 35.478C131.272 35.478 130.066 34.2716 130.066 32.7835C130.066 31.2954 131.272 30.089 132.76 30.089C134.248 30.089 135.455 31.2954 135.455 32.7835Z" fill="#00A76F"/>
<path d="M87.0189 2.69449C87.0189 4.18261 85.8126 5.38898 84.3244 5.38898C82.8363 5.38898 81.63 4.18261 81.63 2.69449C81.63 1.20636 82.8363 0 84.3244 0C85.8126 0 87.0189 1.20636 87.0189 2.69449Z" fill="#00A76F"/>
<path d="M13.0992 26.1165C13.0992 28.6104 11.0774 30.6322 8.58344 30.6322C6.08947 30.6322 4.06771 28.6104 4.06771 26.1165C4.06771 23.6225 6.08947 21.6007 8.58344 21.6007C11.0774 21.6007 13.0992 23.6225 13.0992 26.1165Z" fill="#00A76F"/>
</g>
<path fill-rule="evenodd" clip-rule="evenodd" d="M53.8454 62.4629C50.5224 62.4629 47.8286 65.1567 47.8286 68.4797C47.8286 71.8027 50.5224 74.4965 53.8454 74.4965C57.1684 74.4965 59.8622 71.8027 59.8622 68.4797C59.8622 65.1567 57.1684 62.4629 53.8454 62.4629V62.4629Z" fill="#007867"/>
<path opacity="0.72" fill-rule="evenodd" clip-rule="evenodd" d="M53.8455 63.1626C56.7819 63.1626 59.1624 65.5431 59.1624 68.4795C59.1624 71.416 56.7819 73.7964 53.8455 73.7964C50.909 73.7964 48.5286 71.416 48.5286 68.4795C48.5311 65.5441 50.9101 63.1652 53.8455 63.1626Z" fill="#00A76F"/>
<path fill-rule="evenodd" clip-rule="evenodd" d="M51.3575 68.919L51.0666 68.6351C51.0037 68.5776 50.968 68.4973 50.968 68.4133C50.968 68.3292 51.0037 68.2489 51.0666 68.1914L53.6193 65.698C53.6782 65.6366 53.7605 65.6018 53.8467 65.6018C53.9328 65.6018 54.0151 65.6366 54.074 65.698L56.6267 68.1892C56.6884 68.2473 56.7232 68.3274 56.7232 68.411C56.7232 68.4947 56.6884 68.5748 56.6267 68.6329L56.3358 68.9168C56.2762 68.977 56.1942 69.011 56.1084 69.011C56.0227 69.011 55.9407 68.977 55.8811 68.9168L54.3718 67.364V71.0487C54.3724 71.1302 54.3396 71.2087 54.2807 71.2666C54.2218 71.3245 54.1416 71.357 54.0581 71.357H53.6375C53.463 71.357 53.3216 71.219 53.3216 71.0487V67.3684L51.8122 68.9213C51.7523 68.9812 51.6701 69.0148 51.5844 69.0143C51.4986 69.0139 51.4168 68.9795 51.3575 68.919Z" fill="#007867"/>
<path d="M10.0521 83.4993C10.0521 83.4993 12.8836 74.2162 9.60861 70.4977C7.15829 67.716 4.3766 68.0486 3.13088 68.3924C2.47899 68.5666 1.93624 69.0178 1.64599 69.6269C1.20999 70.5662 1.28847 72.091 4.3629 73.8711C9.50896 76.8509 9.82911 80.9381 9.82911 80.9381L10.0521 83.4993Z" fill="#00A76F"/>
<path d="M10.1671 83.5727C10.1671 83.5727 6.84978 76.8259 5.93916 76.9704C5.5069 77.0414 5.30758 77.4687 5.21665 77.8947C5.10483 78.4475 5.16797 79.0213 5.39727 79.5366C5.86816 80.6203 7.13256 82.6695 10.1671 83.5727Z" fill="#00A76F"/>
<path d="M10.0684 83.5727C10.0684 83.5727 13.3845 76.8259 14.2951 76.9704C14.7286 77.0414 14.9279 77.4687 15.0176 77.8947C15.1294 78.4475 15.0663 79.0213 14.837 79.5366C14.3661 80.6203 13.1004 82.6695 10.0684 83.5727Z" fill="#00A76F"/>
<path fill-rule="evenodd" clip-rule="evenodd" d="M3.47646 69.678C3.49367 69.6231 3.55212 69.5926 3.60701 69.6098L3.57586 69.7092C3.60701 69.6098 3.60701 69.6098 3.60701 69.6098L3.60764 69.61L3.60903 69.6104L3.61407 69.612L3.63294 69.6183C3.64938 69.6238 3.67341 69.6321 3.70448 69.6433C3.76662 69.6657 3.85692 69.6999 3.97083 69.7472C4.19861 69.8419 4.52097 69.9894 4.90149 70.2015C5.66235 70.6256 6.65696 71.3085 7.59273 72.3441C9.46767 74.4191 11.0957 77.8989 10.1563 83.5165C10.1468 83.5732 10.0932 83.6115 10.0364 83.602C9.97967 83.5925 9.94136 83.5388 9.95085 83.4821C10.88 77.9255 9.26923 74.5103 7.43815 72.4838C6.52092 71.4687 5.54574 70.7991 4.80006 70.3835C4.42731 70.1757 4.11221 70.0316 3.89085 69.9396C3.78019 69.8936 3.693 69.8606 3.63379 69.8393C3.60418 69.8286 3.58158 69.8208 3.56655 69.8158L3.54974 69.8102L3.54572 69.8089L3.54484 69.8086C3.48996 69.7914 3.45926 69.7329 3.47646 69.678Z" fill="#007867"/>
<path fill-rule="evenodd" clip-rule="evenodd" d="M8.538 70.5865C8.57013 70.6342 8.55755 70.6989 8.50992 70.7311L8.50957 70.7313L8.50771 70.7326L8.49939 70.7384C8.49189 70.7438 8.48059 70.7521 8.46615 70.7631C8.43723 70.7852 8.39579 70.8183 8.34693 70.8618C8.249 70.949 8.1225 71.0765 8.00734 71.2382C7.7772 71.5613 7.59739 72.0123 7.76743 72.5531C7.78469 72.608 7.75419 72.6664 7.69931 72.6837C7.64442 72.7009 7.58595 72.6704 7.56869 72.6156C7.37249 71.9916 7.58446 71.4728 7.83765 71.1173C7.96417 70.9397 8.10222 70.8007 8.20843 70.7062C8.26165 70.6588 8.30717 70.6224 8.33971 70.5975C8.35598 70.5851 8.36903 70.5756 8.37819 70.569L8.38895 70.5614L8.39199 70.5593L8.39291 70.5587L8.39332 70.5584C8.39332 70.5584 8.3934 70.5584 8.44959 70.6417L8.39332 70.5584C8.44103 70.5263 8.50585 70.5388 8.538 70.5865Z" fill="#007867"/>
<path fill-rule="evenodd" clip-rule="evenodd" d="M4.48716 71.4079L4.48815 71.4069L4.49309 71.4021C4.49768 71.3977 4.50482 71.391 4.51437 71.3824C4.5335 71.3652 4.56222 71.3405 4.59946 71.3119C4.67415 71.2546 4.78199 71.1821 4.91449 71.1214C5.17885 71.0004 5.53546 70.9284 5.9276 71.1093C5.97984 71.1334 6.04173 71.1106 6.06583 71.0584C6.08993 71.0061 6.06713 70.9442 6.01489 70.9201C5.55123 70.7062 5.12864 70.7942 4.82776 70.932C4.67763 71.0007 4.55634 71.0823 4.47255 71.1467C4.43056 71.179 4.3977 71.2071 4.37506 71.2275C4.36373 71.2377 4.35494 71.2459 4.34882 71.2518L4.34164 71.2588L4.33958 71.2608L4.33894 71.2615L4.33863 71.2618C4.33863 71.2618 4.33855 71.2619 4.41286 71.3349L4.33863 71.2618C4.2983 71.3028 4.29881 71.3689 4.33985 71.4092C4.38088 71.4495 4.44684 71.4489 4.48716 71.4079Z" fill="#007867"/>
<path fill-rule="evenodd" clip-rule="evenodd" d="M7.75974 75.023L7.76019 75.0228L7.76238 75.0217L7.77179 75.0172C7.78023 75.0131 7.79291 75.0071 7.80932 74.9997C7.84215 74.9849 7.88973 74.9645 7.94792 74.9422C8.06483 74.8975 8.22204 74.8465 8.38706 74.819C8.55337 74.7913 8.7189 74.7889 8.85719 74.8332C8.99064 74.876 9.10256 74.9629 9.16979 75.1276C9.19154 75.1809 9.25234 75.2064 9.30561 75.1847C9.35887 75.1629 9.38441 75.1021 9.36267 75.0489C9.27045 74.823 9.10846 74.6949 8.92075 74.6348C8.73788 74.5762 8.53499 74.5831 8.35281 74.6135C8.16934 74.6441 7.99799 74.7 7.87347 74.7476C7.81094 74.7715 7.75959 74.7936 7.72366 74.8098C7.70568 74.8179 7.69153 74.8246 7.68174 74.8293L7.67036 74.8348L7.66724 74.8364L7.66635 74.8368L7.66597 74.837C7.66597 74.837 7.6659 74.837 7.71281 74.93L7.66597 74.837C7.61461 74.8629 7.59391 74.9256 7.61982 74.9769C7.64573 75.0283 7.70839 75.0489 7.75974 75.023Z" fill="#007867"/>
<path fill-rule="evenodd" clip-rule="evenodd" d="M5.90483 78.1678C5.95219 78.1352 6.01706 78.1471 6.04972 78.1945L5.96396 78.2536L5.87821 78.3127C5.84555 78.2654 5.85747 78.2005 5.90483 78.1678ZM5.96396 78.2536C5.87821 78.3127 5.87821 78.3127 5.87821 78.3127L5.9176 78.3697C5.9433 78.4068 5.98107 78.4612 6.02937 78.5305C6.12596 78.6691 6.26468 78.8673 6.43323 79.1059C6.7703 79.5829 7.22686 80.2215 7.70458 80.8671C8.18208 81.5124 8.68163 82.1661 9.10447 82.6728C9.31576 82.926 9.50921 83.1441 9.672 83.3066C9.75335 83.3878 9.82841 83.4565 9.89526 83.5091C9.96016 83.5602 10.0248 83.6022 10.0846 83.6219C10.1392 83.6399 10.1981 83.6102 10.2161 83.5556C10.2341 83.5009 10.2044 83.4421 10.1498 83.424C10.1255 83.416 10.0841 83.3926 10.0241 83.3454C9.96607 83.2997 9.89738 83.2372 9.81918 83.1592C9.66287 83.0032 9.47404 82.7905 9.26443 82.5393C8.84549 82.0373 8.34877 81.3875 7.87205 80.7432C7.39555 80.0992 6.93993 79.4619 6.60338 78.9856C6.43512 78.7475 6.29667 78.5497 6.20029 78.4114C6.15211 78.3422 6.11444 78.2879 6.08883 78.251L6.04972 78.1945C6.04972 78.1945 6.04972 78.1945 5.96396 78.2536Z" fill="#007867"/>
<path fill-rule="evenodd" clip-rule="evenodd" d="M5.53956 79.0421C5.53956 78.9846 5.5862 78.9379 5.64373 78.9379H6.45594C6.51347 78.9379 6.56011 78.9846 6.56011 79.0421C6.56011 79.0996 6.51347 79.1463 6.45594 79.1463H5.64373C5.5862 79.1463 5.53956 79.0996 5.53956 79.0421Z" fill="#007867"/>
<path fill-rule="evenodd" clip-rule="evenodd" d="M6.51256 80.8838C6.51503 80.8263 6.56363 80.7817 6.62111 80.7842L7.89547 80.839C7.95295 80.8415 7.99754 80.8901 7.99507 80.9475C7.9926 81.005 7.944 81.0496 7.88652 81.0471L6.61215 80.9923C6.55468 80.9899 6.51009 80.9413 6.51256 80.8838Z" fill="#007867"/>
<path fill-rule="evenodd" clip-rule="evenodd" d="M7.41376 79.3088C7.47008 79.3206 7.50623 79.3757 7.4945 79.4321L7.35622 80.096C7.34449 80.1523 7.28933 80.1885 7.23301 80.1768C7.17668 80.165 7.14054 80.1099 7.15226 80.0535L7.29054 79.3896C7.30227 79.3333 7.35743 79.2971 7.41376 79.3088Z" fill="#007867"/>
<path fill-rule="evenodd" clip-rule="evenodd" d="M8.75093 81.3261C8.80841 81.3285 8.85308 81.377 8.85071 81.4345L8.82579 82.0374C8.82342 82.0949 8.7749 82.1395 8.71741 82.1372C8.65993 82.1348 8.61526 82.0863 8.61764 82.0288L8.64255 81.4259C8.64493 81.3684 8.69345 81.3237 8.75093 81.3261Z" fill="#007867"/>
<path fill-rule="evenodd" clip-rule="evenodd" d="M14.186 78.1944C14.2187 78.147 14.2836 78.1352 14.3309 78.1679C14.3782 78.2006 14.3901 78.2655 14.3574 78.3128L14.2717 78.2536L14.186 78.1944ZM14.186 78.1944C14.186 78.1944 14.186 78.1944 14.2717 78.2536C14.3574 78.3128 14.3574 78.3128 14.3574 78.3128L14.3179 78.3697C14.2921 78.4068 14.2543 78.4612 14.2059 78.5306C14.1091 78.6692 13.9701 78.8674 13.8013 79.1059C13.4636 79.583 13.0063 80.2215 12.5281 80.8671C12.05 81.5125 11.5501 82.1661 11.1275 82.6728C10.9163 82.926 10.7231 83.1441 10.5607 83.3065C10.4796 83.3877 10.4048 83.4564 10.3383 83.509C10.2737 83.56 10.2095 83.6021 10.1501 83.6218C10.0955 83.64 10.0365 83.6105 10.0184 83.5559C10.0002 83.5013 10.0297 83.4423 10.0843 83.4241C10.1082 83.4162 10.1493 83.3928 10.2091 83.3456C10.2669 83.2998 10.3354 83.2373 10.4134 83.1593C10.5693 83.0032 10.758 82.7906 10.9675 82.5394C11.3863 82.0373 11.8834 81.3874 12.3607 80.7431C12.8377 80.0991 13.2941 79.4619 13.6312 78.9856C13.7998 78.7474 13.9385 78.5496 14.0351 78.4113C14.0834 78.3421 14.1211 78.2879 14.1468 78.2509L14.186 78.1944Z" fill="#007867"/>
<path fill-rule="evenodd" clip-rule="evenodd" d="M13.6751 79.0421C13.6751 78.9846 13.7218 78.9379 13.7793 78.9379H14.5915C14.649 78.9379 14.6957 78.9846 14.6957 79.0421C14.6957 79.0996 14.649 79.1463 14.5915 79.1463H13.7793C13.7218 79.1463 13.6751 79.0996 13.6751 79.0421Z" fill="#007867"/>
<path fill-rule="evenodd" clip-rule="evenodd" d="M13.7226 80.8838C13.7251 80.9413 13.6805 80.9899 13.623 80.9923L12.3486 81.0471C12.2912 81.0496 12.2426 81.005 12.2401 80.9475C12.2376 80.8901 12.2822 80.8415 12.3397 80.839L13.6141 80.7842C13.6715 80.7817 13.7201 80.8263 13.7226 80.8838Z" fill="#007867"/>
<path fill-rule="evenodd" clip-rule="evenodd" d="M12.8214 79.3088C12.8777 79.2971 12.9329 79.3333 12.9446 79.3896L13.0829 80.0535C13.0946 80.1099 13.0585 80.165 13.0021 80.1768C12.9458 80.1885 12.8906 80.1523 12.8789 80.096L12.7406 79.4321C12.7289 79.3757 12.7651 79.3206 12.8214 79.3088Z" fill="#007867"/>
<path fill-rule="evenodd" clip-rule="evenodd" d="M11.4843 81.3261C11.5418 81.3237 11.5903 81.3684 11.5927 81.4259L11.6176 82.0288C11.62 82.0863 11.5753 82.1348 11.5179 82.1372C11.4604 82.1395 11.4119 82.0949 11.4095 82.0374L11.3846 81.4345C11.3822 81.377 11.4269 81.3285 11.4843 81.3261Z" fill="#007867"/>
<defs>
<linearGradient id="paint0_linear_4539_23393" x1="42.4283" y1="32.1831" x2="22.2461" y2="91.7768" gradientUnits="userSpaceOnUse">
<stop stop-color="#00A76F"/>
<stop offset="1" stop-color="#007867"/>
</linearGradient>
</defs>
</svg>
